<?xml version="1.0" standalone="no"?>
<!DOCTYPE svg PUBLIC "-//W3C//DTD SVG 1.1//EN" "http://www.w3.org/Graphics/SVG/1.1/DTD/svg11.dtd">
<svg xmlns="http://www.w3.org/2000/svg">
<metadata>Generated by Fontastic.me</metadata>
<defs>
<font id="glg-icons" horiz-adv-x="512">
<font-face font-family="glg-icons" units-per-em="512" ascent="480" descent="-32"/>
<missing-glyph horiz-adv-x="512" />

<glyph unicode="&#119;" d="M1 255c0 56 35 99 94 99 49 0 80-27 86-68l-53 0c-4 11-15 22-31 22-27 0-40-22-40-53 0-31 15-54 42-54 20 0 30 11 33 19l-35 0 0 40 91 0 0-102-34 0-10 23 0 0c-12-17-32-25-55-25-25 0-47 9-62 25-18 19-26 44-26 74m195 93l57 0 0-142 66 0 0-48-123 0z m117-93c0 56 36 99 94 99 49 0 81-28 87-68l-54 0c-3 10-14 22-30 22-27 0-40-22-40-53 0-31 15-54 42-54 20 0 30 11 33 19l-35 0 0 40 91 0 0-102-34 0-10 23-1 0c-11-17-31-25-54-25-25 0-47 9-62 25-18 19-27 44-27 74"/>
<glyph unicode="&#120;" d="M278 372l32 114c0 0-51 15-74 22-24 6-139-69-90-309 30-150 90-193 141-195 52-2 97 41 97 41l-83 114-55-4c0 0-41 72-29 177z"/>
<glyph unicode="&#121;" d="M363 160c-46-2-27 31-28 77-1 45 41 17 100 9 59-9 18-16 64-30l7-14c4 17 6 35 6 54 0 21-3 53-8 73-21-6-44-25-55-30-20-9-37-10-28 16 10 25 3 52-23 43-26-8-22 7-30 28-5 15 31 45 63 57-46 43-107 69-175 69-61 0-117-21-161-57 31-6 59-13 59-13 0 0 6-15 8-28 3-14 14-20 24-27 9-6 9-28-16-41-26-14-35-23-36-32 0-9-32 2-27-15 6-17 23-25 23-34 0-10-25-27-37-4-12 22-6 46-25 49-18 4-63 13-48 33 3 5 5 14 6 25-16-34-26-72-26-112 0-141 115-256 256-256 67 0 127 26 173 67-12 16-28 37-36 52-15 27 17 42-30 41z m-140-59c-10-24-27-39-39-41-11-2-54 135-43 181 3 11 4 17 5 21 0 0 0 0 0 0 0 0 4 15 0 0 4-1 97-33 98-75 0-43-12-62-21-86z m-77 161c0 0 0 0 0 0 4 15 0 0 0 0z"/>
<glyph unicode="&#122;" d="M77 0l341 0c5 0 9 4 9 9l0 426c0 5-4 9-9 9l-77 0 0 25c0 5-3 9-8 9l-35 0c-4 21-23 34-51 34-28 0-46-13-50-34l-35 0c-5 0-8-4-8-9l0-25-77 0c-5 0-9-4-9-9l0-426c0-5 4-9 9-9z m85 358l171 0c5 0 8 4 8 9l0 26 34 0 0-325-256 0 0 325 35 0 0-26c0-5 3-9 8-9z m9 103l34 0c5 0 8 4 8 8 0 23 22 26 34 26 13 0 35-3 35-26 0-4 3-8 8-8l34 0 0-86-153 0z m-86-34l69 0 0-17-43 0c-5 0-9-4-9-9l0-341c0-5 4-9 9-9l273 0c5 0 9 4 9 9l0 341c0 5-4 9-9 9l-43 0 0 17 69 0 0-410-325 0z m86-120l150 0c5 0 9 4 9 9 0 4-4 8-9 8l-150 0c-5 0-9-4-9-8 0-5 4-9 9-9z m0-51l150 0c5 0 9 4 9 9 0 4-4 8-9 8l-150 0c-5 0-9-4-9-8 0-5 4-9 9-9z m0-51l150 0c5 0 9 4 9 8 0 5-4 9-9 9l-150 0c-5 0-9-4-9-9 0-4 4-8 9-8z m0-51l150 0c5 0 9 3 9 8 0 5-4 9-9 9l-150 0c-5 0-9-4-9-9 0-5 4-8 9-8z"/>
<glyph unicode="&#104;" d="M382 377l1-3-140 4-3-2c-2-2-6-6-11-13l-100-3 1 4-130 48 0-254 52-19 19 53 16-2c-1-13 7-26 20-32 4-2 8-3 13-3 4 0 8 1 12 3 0-1 1-2 1-3 3-8 9-14 17-17 4-2 8-3 13-3 5 0 10 1 14 3 3-8 9-14 18-18 4-2 8-3 13-3 5 0 10 2 15 4 3-8 10-14 17-18 4-1 8-2 13-2 4 0 8 1 12 2l13-9 0-1c1-1 9-6 19-6 8 0 15 3 20 9l0 1c3 3 5 9 6 15 4-1 9-2 14-2 7 0 15 2 23 11 4 5 6 10 8 16 7-4 15-5 24-3 10 4 17 13 20 23 1 3 1 6 1 9 6 0 14 2 22 9 9 8 11 27 5 37l2 0 20-59 52 19-3 253z m-341-214l-23 8 1 215 88-33z m102 45l-3-8-7-17-1-1c-3-7-12-10-19-7-6 2-9 8-9 14 0 1 0 4 1 6l5 11 6 14c2 5 7 9 13 9 1 0 4 0 5-1 8-4 12-13 9-20z m37-33l-6-14c-3-7-11-10-19-7-3 1-6 4-7 8-1 3-1 7 0 11l3 7 8 17 6 15c3 5 8 9 13 9 2 0 4 0 6 0 7-4 11-12 7-19l-4-10z m50-5l-9-19-3-7c-3-7-11-11-19-7-7 3-10 11-7 18l7 18 8 17 2 5c3 4 8 8 13 8 2 0 4 0 6 0 3-2 6-4 7-8 2-4 2-8 0-11z m46-15c0-1-1-3-1-3l-10-24 0-1c-3-6-9-9-15-9 0 0-1 0-1 0-1 0-2 1-3 1-3 1-7 4-8 8-1 2-1 4-1 6 0 1 1 3 1 5l6 15 5 11c3 5 7 9 13 9 2 0 4 0 6-1 1 0 1-1 1-1 5-3 8-10 7-16z m24-48c-1-1-3-2-5-2-4 0-8 2-9 2l-8 7c1 2 2 4 3 6l8 18 5-4 1-1c12-12 7-23 5-26z m120 81c-6-5-10-5-18-2-1 0-1 1-2 1-13 13-54 51-56 52l-13-13c13-13 42-40 57-52 1-1 2-1 2-1 3-5 2-9 2-11 0-5-5-9-8-11-8-2-19 8-26 13-1 2-3 4-5 4 0 0-1 1-1 1-9 10-46 43-48 45l-12-13c7-6 12-11 19-17 10-10 20-19 31-28 9-9 10-14 2-23-6-7-15-3-18-1l-20 16-12 12c-1 13-8 24-20 29-4 1-8 2-13 2-2 0-5 0-7-1 0 4-1 8-2 11-4 8-10 15-18 18-4 2-8 2-13 2-4 0-9 0-13-3-4 8-9 15-18 19-4 1-8 2-13 2-9 0-16-3-22-8-3 5-8 10-14 12-4 2-8 3-13 3-13 0-25-8-30-20l-8-18-13 1 47 132 93 4c0 0 0-1 0-1-14-25-31-65-32-66l-3-7 6-4c1-1 17-13 36-13 15 0 34 7 42 41l11 21 21 0c15-14 30-28 46-42l30-28c7-6 13-12 19-17 7-6 12-12 19-17 2-2 3-3 5-4 1-2 3-3 4-4 2-3 1-14-1-16z m7 37l-27 22c-4 5-8 9-13 13l-30 28c-18 16-35 31-52 47l-27 0c0 0 0 0 1 0l-11 0-16-31-1-2c-7-29-21-29-26-29-7 0-14 4-19 6 6 13 18 39 28 58 2 4 4 7 5 11 5 5 8 9 9 12l30-1 109-3 35-94 12-35z m43-48l-65 189 88 33 1-214z m5 57c-8 0-14-6-14-14 0-8 6-15 14-15 9 0 15 7 15 15 0 8-6 14-15 14z m0-23c-5 0-9 4-9 9 0 5 4 9 9 9 5 0 9-4 9-9 0-5-4-9-9-9z m-438 10c-8 0-14-7-14-15 0-8 6-15 14-15 9 0 15 7 15 15 0 8-6 15-15 15z m0-24c-4 0-9 4-9 9 0 5 5 9 9 9 5 0 9-4 9-9 0-5-4-9-9-9z"/>
<glyph unicode="&#88;" d="M160 243c1-1 2-2 4-2 0 0 1 0 2 1l176 115-4-27c0-2 2-4 4-5 0 0 1 0 1 0 2 0 3 2 4 4l4 36c0 0 0 1 0 1 0 0 0 0 0 1 0 0 0 0-1 1 0 0 0 0 0 0 0 0 0 1 0 1 0 0-1 0-1 0 0 0 0 0 0 1-1 0-1 0-1 0l-38 4c-2 0-4-2-4-4 0-2 1-4 3-4l25-3-173-114c-2-2-2-4-1-6z m211-95l-13 0 0 149c0 2-2 4-4 4l-32 0c-2 0-4-2-4-4l0-149-16 0 0 109c0 2-2 4-4 4l-32 0c-2 0-4-2-4-4l0-110-16 0 0 70c0 2-2 4-4 4l-33 0c-2 0-4-2-4-4l0-69-16 0 0 28c0 2-2 4-4 4l-32 0c-2 0-4-2-4-4l0-28-12 0c-2 0-4-2-4-4 0-2 2-4 4-4l233 0c2 0 4 2 4 4 0 2-1 4-3 4z m-214 0l0 24 24 0 0-24z m57 0l0 64 24 0 0-64z m56 0l0 105 24 0 0-105z m56 0l0 145 24 0 0-145z m-70 351c-134 0-243-109-243-243 0-134 109-243 243-243 134 0 243 109 243 243 0 134-109 243-243 243z m0-473c-127 0-230 103-230 230 0 127 103 230 230 230 127 0 230-103 230-230 0-127-103-230-230-230z"/>
<glyph unicode="&#90;" d="M323 229c-1 0-8 3-15 3-7 0-12-2-15-6-1-1-2-2-3-4-5-5-11-13-19-13-4 0-9 2-13 6-21 16-40 47-42 50-1 3-6 15 4 23 14 10 28 22 18 43-8 16-20 30-21 32-1 2-7 9-17 9-4 0-9-2-14-5-4-3-20-15-29-35-10-21-9-45 2-71 25-57 78-98 106-111 10-5 21-7 32-7 6 0 12 1 18 2 15 3 39 15 45 32 3 9 1 18-5 26-15 17-31 25-32 26z m-123 131c5 0 8-3 8-4l0 0c0 0 13-14 20-30 6-13 1-18-15-30-14-11-11-28-7-35l0-1c1-1 21-36 44-54 7-5 14-8 20-8 13 0 22 10 27 18 1 1 2 2 3 3 2 1 4 2 7 2 5 0 11-2 11-2 1-1 15-8 28-24 4-5 5-10 4-15-4-12-23-23-38-26-15-3-30-1-43 4-22 10-76 50-101 106-24 57 15 88 23 93 4 2 7 3 9 3z m56 139c-132 0-240-109-240-243 0-134 108-243 240-243 132 0 240 109 240 243 0 134-108 243-240 243z m0-473c-125 0-227 103-227 230 0 127 102 230 227 230 125 0 227-103 227-230 0-127-102-230-227-230z"/>
<glyph unicode="&#48;" d="M355 360l0 19-19 0 0 19-198 0 0-251 19 0 0-18 19 0 0-19 198 0 0 250z m-198-200l-7 0 0 226 174 0 0-7-167 0z m19-19l-7 0 0 226 174 0 0-7-167 0z m186-19l-174 0 0 227 174 0z m-106 377c-134 0-243-109-243-243 0-134 109-243 243-243 134 0 243 109 243 243 0 134-109 243-243 243z m0-473c-127 0-230 103-230 230 0 127 103 230 230 230 127 0 230-103 230-230 0-127-103-230-230-230z"/>
<glyph unicode="&#49;" d="M332 336l1-2-88 3-2-1c-1-1-4-4-7-8l-63-3 1 3-82 30 0-159 33-12 12 33 10-1c-1-9 4-17 12-20 3-1 5-2 8-2 3 0 6 1 8 2 0-1 1-1 1-2 2-5 6-9 10-11 3-1 5-2 9-2 3 0 6 1 8 2 2-5 6-9 12-11 2-1 5-2 8-2 3 0 6 1 9 3 2-6 7-9 11-12 3-1 5-1 8-1 3 0 6 0 8 1l8-6 0 0c-1-1 4-4 11-4 5 0 9 2 12 5l0 1c2 2 3 5 4 9 2-1 6-1 9-1 4 0 9 1 14 7 2 3 4 6 5 10 5-2 10-3 15-2 7 2 11 8 13 15 0 2 0 3 0 5 4 0 9 1 14 6 6 5 7 17 4 23l1 0 12-37 33 12 0 159z m-214-135l-14 5 0 135 56-20z m64 29l-2-5-4-10-1-1c-2-5-7-7-12-5-3 2-5 6-5 9 0 1 0 3 0 4l3 7 4 9c1 3 4 5 8 5 1 0 3 0 4 0 5-3 7-9 5-13z m24-21l-4-8c-2-5-7-7-12-5-2 1-4 3-4 5-1 2-1 5 0 7l2 4 5 11 4 10c1 3 4 6 8 6 1 0 2 0 3-1 5-2 7-7 5-12l-3-6z m31-3l-5-12-2-5c-2-4-7-6-12-4-4 2-7 7-4 12l4 10 5 11 1 3c2 3 5 6 8 6 1 0 3 0 4-1 2-1 4-2 5-5 1-2 1-4 0-6z m29-9c0-1-1-2-1-2l-6-15 0-1c-2-3-6-5-10-5 0 0 0 0 0 0-1 0-2 0-2 0-2 1-4 3-5 5-1 1-1 3-1 4 0 1 1 2 1 3l4 10 3 6c1 4 4 6 8 6 1 0 3 0 4-1 0 0 0 0 1 0 3-3 5-7 4-10z m16-31c-1-1-2-1-4-1-3 0-5 1-6 1l-5 4c1 2 2 3 2 4l5 12 4-3 0 0c8-7 4-15 4-17z m74 51c-3-3-6-3-11-1 0 0 0 1-1 1-8 8-34 31-36 32l-7-8c8-8 26-25 35-33 1 0 1-1 1-1 2-2 2-5 2-6-1-3-3-6-5-7-5-1-12 5-17 8-1 1-2 2-3 3 0 0 0 0 0 0-6 6-29 27-30 28l-8-8c4-3 8-7 12-10 6-7 13-12 19-18 6-6 6-9 2-14-4-5-10-2-12-1l-12 11-8 7c-1 7-5 15-12 18-3 1-5 1-8 1-2 0-4 0-5 0 0 2-1 4-2 6-2 5-6 9-10 12-3 1-6 1-9 1-3 0-6 0-8-2-2 5-6 9-12 12-2 1-5 1-8 1-5 0-9-2-13-5-2 3-5 6-9 8-3 1-5 1-8 1-9 0-16-5-19-12l-4-11-9 1 30 83 58 2c0 0 0 0 0 0-8-16-19-41-20-42l-1-4 3-3c1 0 11-8 23-8 9 0 21 5 27 26l6 13 14 0c9-9 19-17 28-26l20-18c4-4 8-7 11-11 5-3 8-7 12-11 1-1 2-1 3-2 1-1 2-2 3-2 0-2 0-9-2-11z m4 24l-16 13c-2 3-6 6-8 8l-20 18c-10 10-21 20-32 30l-17 0c0 0 0 0 1-1l-7 0-11-19 0-1c-4-18-13-18-16-18-5 0-9 2-12 3 3 9 11 25 17 37 2 2 3 4 4 6 3 5 4 8 5 9l19-1 69-2 21-59 8-22z m29-31l-42 119 55 21 1-135z m2 21c-5 0-9-4-9-9 0-5 4-10 9-10 5 0 9 5 9 10 0 5-4 9-9 9z m0-15c-3 0-5 3-5 6 0 3 2 5 5 5 3 0 6-2 6-5 0-3-3-6-6-6z m-275 7c-5 0-10-4-10-9 0-6 5-10 10-10 5 0 9 4 9 10 0 5-4 9-9 9z m0-15c-3 0-6 2-6 6 0 3 3 5 6 5 3 0 5-2 5-5 0-4-2-6-5-6z m140 291c-134 0-243-109-243-243 0-134 109-243 243-243 134 0 243 109 243 243 0 134-109 243-243 243z m0-473c-127 0-230 103-230 230 0 127 103 230 230 230 127 0 230-103 230-230 0-127-103-230-230-230z"/>
<glyph unicode="&#51;" d="M372 320l-230 0c-7 0-13-6-13-14l0-136c0-8 6-14 13-14l230 0c7 0 14 6 14 14l0 136c0 8-7 14-14 14z m2-150c0-2-1-3-2-3l-230 0c-1 0-2 1-2 3l0 136c0 2 1 3 2 3l230 0c1 0 2-1 2-3z m-156 188l82 0c3-4 7-21 7-27l11 0c0 1-3 39-16 39l-85 0c-14 0-17-38-17-39l11 0c0 6 4 23 7 27z m38 141c-134 0-243-109-243-243 0-134 109-243 243-243 134 0 243 109 243 243 0 134-109 243-243 243z m0-473c-127 0-230 103-230 230 0 127 103 230 230 230 127 0 230-103 230-230 0-127-103-230-230-230z"/>
<glyph unicode="&#52;" d="M364 256c0 49-33 92-81 104l0-15c39-12 66-48 66-89 0-47-36-86-81-92l0 19-24-27 24-26 0 19c54 6 96 52 96 107z m-201 0c0 47 36 86 81 92l0-19 24 27-24 26 0-19c-54-6-96-52-96-107 0-49 33-91 80-104l0 15c-39 13-65 48-65 89z m93 243c-134 0-243-109-243-243 0-134 109-243 243-243 134 0 243 109 243 243 0 134-109 243-243 243z m0-473c-127 0-230 103-230 230 0 127 103 230 230 230 127 0 230-103 230-230 0-127-103-230-230-230z"/>
<glyph unicode="&#53;" d="M256 438c-99 0-179-82-179-182 0-100 81-182 179-182 98 0 179 82 179 182 0 100-80 182-179 182z m0-334c-82 0-150 68-150 152 0 84 67 152 150 152 83 0 150-68 150-152 0-84-68-152-150-152z m0 271c-65 0-117-53-117-119 0-66 52-119 117-119 65 0 117 53 117 119 0 66-52 119-117 119z m0-209c-49 0-88 41-88 90 0 50 39 90 88 90 49 0 88-41 88-90 0-49-39-90-88-90z m0 141c-28 0-50-23-50-51 0-28 22-51 50-51 28 0 50 23 50 51 0 28-22 51-50 51z m0-91c-22 0-39 18-39 40 0 22 17 40 39 40 22 0 39-18 39-40 0-22-17-40-39-40z m0 283c-132 0-240-109-240-243 0-134 108-243 240-243 132 0 240 109 240 243 0 134-108 243-240 243z m0-473c-125 0-227 103-227 230 0 127 102 230 227 230 125 0 227-103 227-230 0-127-102-230-227-230z"/>
<glyph unicode="&#55;" d="M261 449c-2 0-3 0-5 0l-2 0-1 11 3 0c2 0 3 0 5 0z m-104-27l-5 10c2 1 4 2 6 3l5-10c-2-1-4-2-6-3m199-1c-2 1-4 3-6 4l6 10c2-1 4-3 6-4z m-269-71l-10 6c1 2 3 4 4 6l10-5c-1-3-2-5-4-7m338-1c-1 2-2 4-3 6l10 5c1-2 2-4 3-6z m-373-96l0 3c0 2 0 3 0 5l11-1c0-1 0-3 0-5l0-2z m408-2l-11 0c0 1 0 3 0 5l0 3 11 0 0-3c0-2 0-4 0-5m-380-99c-1 2-2 4-3 6l10 5c1-2 2-4 3-6z m350-2l-9 5c1 2 2 4 3 6l10-5c-1-2-2-4-4-6m-274-72c-2 1-4 2-6 4l5 9c2-1 4-2 6-3z m198-2l-5 10c2 1 4 3 6 4l5-10c-2-1-4-2-6-4m-95-24l0 5z m-3 0c-2 0-4 0-5 0l0 11c2 0 3 0 5 0l2 0 1-6 0-5z m0 197c-2 0-4-2-4-4 0-2 2-3 4-3 2 0 4 1 4 3 0 2-2 4-4 4m0-19c-8 0-15 7-15 15 0 8 7 15 15 15 8 0 15-7 15-15 0-8-7-15-15-15m-5 16l11 0-5 103z m18-7l-26 0 9 183 8 0z m-6-3l60-29-55 37z m99-56l-111 52 15 22 100-68z m-106 319c-134 0-243-109-243-243 0-134 109-243 243-243 134 0 243 109 243 243 0 134-109 243-243 243z m0-473c-127 0-230 103-230 230 0 127 103 230 230 230 127 0 230-103 230-230 0-127-103-230-230-230z"/>
<glyph unicode="&#56;" d="M256 499c-134 0-243-109-243-243 0-134 109-243 243-243 134 0 243 109 243 243 0 134-109 243-243 243z m0-473c-127 0-230 103-230 230 0 127 103 230 230 230 127 0 230-103 230-230 0-127-103-230-230-230z m-53 352l-46-40 0-210 198 0 0 250z m-2-18l0-22-26 0z m142-220l-174 0 0 186 43 0 0 40 131 0z m-148 149l122 0 0 12-122 0z m0-34l122 0 0 11-122 0z m0-34l122 0 0 11-122 0z m0-34l122 0 0 12-122 0z"/>
<glyph unicode="&#35;" d="M256 499c-134 0-243-109-243-243 0-134 109-243 243-243 134 0 243 109 243 243 0 134-109 243-243 243z m0-473c-127 0-230 103-230 230 0 127 103 230 230 230 127 0 230-103 230-230 0-127-103-230-230-230z m1 130c-56 0-74 4-80 7l-2 0 0 4c0 0 0 1 0 1l0 49 2 1c1 1 20 18 52 24l0 19c-14 13-23 34-23 57l0 5c0 33 19 54 52 54 31 0 51-21 51-54l0-5c0-23-9-44-23-57l0-19c18-4 35-12 52-23l2-1 0-54-3 0c-6-4-24-8-80-8z m-70 14c10-2 35-4 70-4 35 0 60 2 70 4l-2 3 5 0 0 38c-17 11-34 18-50 21l-5 1 0 32 3 2c12 10 20 30 20 51l0 4c0 38-25 44-40 44-16 0-41-6-41-44l0-4c0-21 7-40 20-51l2-1 0-32-4-1c-26-4-45-16-50-21l0-38 5 0z m204 42l-38 0-1 2c-9 7-34 23-51 28l-11 3 8 6c3 2 13 9 27 12l0 5c-8 7-12 19-12 32l0 2c0 20 12 33 30 33 18 0 30-13 30-33l0-2c0-13-4-25-12-32l0-5c9-2 18-6 27-13l2-1z m-34 11l22 0-1 3 2 0 0 17c-8 5-16 9-25 11l-4 1 0 18 2 1c6 6 11 16 11 27l0 2c0 14-8 22-20 22-13 0-20-8-20-22l0-2c0-11 4-21 10-27l2-1 0-18-4-1c-7-1-14-3-18-6 16-6 34-19 43-25z m-222-11c-12 0-12 0-14 4l0 1 0 33 2 2c0 0 11 10 29 14l0 5c-8 8-13 20-13 33l0 2c0 21 13 35 31 35 19 0 32-14 32-35l0-2c0-13-5-26-13-34l0-5c10-2 19-6 29-13l2-2 0-6-4-1c-21-7-54-29-54-29l-2-2z m-3 11c1 0 2 0 3 0l23 0c5 3 27 17 45 26-6 3-14 6-20 7l-4 1 0 18 2 2c6 6 11 16 11 28l0 2c0 15-8 24-21 24-13 0-21-8-21-24l0-2c0-12 4-22 11-27l2-2 0-18-4-1c-14-3-23-8-27-11l0-23z"/>
<glyph unicode="&#36;" d="M256 499c-134 0-243-109-243-243 0-134 109-243 243-243 134 0 243 109 243 243 0 134-109 243-243 243z m0-473c-127 0-230 103-230 230 0 127 103 230 230 230 127 0 230-103 230-230 0-127-103-230-230-230z m-84 108l168 0c3 0 5 2 5 4l0 211c0 2-2 4-5 4l-37 0 0 13c0 2-2 4-5 4l-17 0c-2 10-11 17-25 17-14 0-23-7-25-17l-17 0c-3 0-5-2-5-4l0-13-37 0c-3 0-5-2-5-4l0-210c1-3 3-5 5-5z m43 177l83 0c3 0 5 2 5 4l0 13 16 0 0-160-125 0 0 160 16 0 0-13c0-2 2-4 5-4z m4 50l17 0c2 0 4 3 4 5 0 10 10 12 17 12 6 0 16-1 16-12 0-3 2-5 5-5l16 0 0-42-75 0z m-42-16l33 0 0-9-21 0c-3 0-4-2-4-4l0-168c0-3 2-4 4-4l135 0c2 0 4 2 4 4l0 168c0 3-2 4-4 4l-21 0 0 9 33 0 0-202-159 0z m42-59l74 0c2 0 4 2 4 4 0 2-2 4-4 4l-74 0c-3 0-4-2-4-4 0-2 1-4 4-4z m0-25l74 0c2 0 4 2 4 4 0 2-2 4-4 4l-74 0c-3 0-4-2-4-4 0-2 1-4 4-4z m0-25l74 0c2 0 4 2 4 4 0 2-2 4-4 4l-74 0c-3 0-4-2-4-4 0-2 1-4 4-4z m0-26l74 0c2 0 4 2 4 4 0 2-2 4-4 4l-74 0c-3 0-4-2-4-4 0-2 1-4 4-4z"/>
<glyph unicode="&#39;" d="M256 499c-132 0-240-109-240-243 0-134 108-243 240-243 132 0 240 109 240 243 0 134-108 243-240 243z m0-473c-125 0-227 103-227 230 0 127 102 230 227 230 125 0 227-103 227-230 0-127-102-230-227-230z m1 213l-6 32 140 13 1-7z m2 26l3-18 93 27z m20-10c0-12-10-22-22-22-12 0-22 10-22 22 0 12 10 22 22 22 12 0 22-10 22-22z m-22-179c-99 0-179 80-179 179 0 99 80 179 179 179 99 0 179-80 179-179l-27 0c0 84-68 152-152 152-84 0-152-68-152-152 0-84 68-152 152-152z m0 44c0 0-2 0-2 0l0 7c0 0 2 0 2 0z m-33 4c-1 0-2 0-4 1l2 7c2-1 3-1 4-1z m-33 13c-1 1-2 2-3 2l3 6c2-1 3-2 4-2 0 0-4-6-4-6z m-28 21c-1 1-2 2-3 3l5 5c1-1 2-2 3-3z m-22 28c0 1-1 2-2 3l6 4c1-1 2-3 2-4z m-14 32c0 2 0 3-1 4l7 2c1-2 1-3 1-4z m-5 35c0 0 0 1 0 2 0 0 0 2 0 2l7 0c0 0 0-2 0-2 0-1 0-2 0-2z m11 33l-7 2c1 1 1 2 1 4l7-2c0-1-1-3-1-4z m248 0c-1 2-1 3-1 4l7 2c0-1 0-2 1-4z m-236 31l-6 4c1 1 2 2 2 3l6-3c-1-2-1-3-2-4z m224 0c-1 1-2 3-2 4l5 4c1-1 2-3 2-4z m-204 27l-5 5c1 1 2 2 3 3l5-5c-1-1-2-2-3-3z m184 0c-1 1-2 2-3 3l4 5c1-1 2-2 3-3z m-158 21l-3 5c1 1 2 2 3 2l4-6c-1 0-2 0-4-1z m132 0c-1 1-3 2-4 2l4 6c1 0 2-1 3-2z m-101 13l-2 7c2 0 3 0 4 1l2-7c-2 0-3-1-4-1z m70 0c-2 0-3 0-4 1l1 7c2-1 3-1 4-1z m-37 5l0 7c2 0 3 0 4 0l0-7c-1 0-2 0-4 0z m137-128l-7 0c0 0 0 2 0 2l7 0c0 0 0-2 0-2z"/>
<glyph unicode="&#103;" d="M256 499c-134 0-243-109-243-243 0-134 109-243 243-243 134 0 243 109 243 243 0 134-109 243-243 243z m0-473c-127 0-230 103-230 230 0 127 103 230 230 230 127 0 230-103 230-230 0-127-103-230-230-230z m-30 216l-13 0c-2 0-4 0-5-2l-30-30 0 26c0 3-3 6-6 6l-27 0 0 112 187 0 0-62c0-3 3-6 7-6 4 0 7 3 7 6l0 69c0 4-3 7-7 7l-201 0c-4 0-7-3-7-7l0-125c0-4 3-7 7-7l26 0 0-35c0-3 2-5 4-6 1-1 2-1 3-1 2 0 4 1 5 2l40 40 9 0c4 0 7 3 7 7 0 4-3 6-6 6z m155 33l-134 0c-4 0-7-3-7-6l0-84c0-4 3-7 7-7l64 0 40-43c1-2 3-2 5-2 1 0 1 0 2 0 3 1 4 4 4 6l0 39 19 0c4 0 7 3 7 7l0 84c0 3-3 6-7 6z m-7-13l0-70-18 0c-4 0-7-3-7-7l0-28-30 32c-1 2-3 2-5 2l-61 0 0 71z"/>
<glyph unicode="&#105;" d="M256 499c-134 0-243-109-243-243 0-134 109-243 243-243 134 0 243 109 243 243 0 134-109 243-243 243z m0-473c-127 0-230 103-230 230 0 127 103 230 230 230 127 0 230-103 230-230 0-127-103-230-230-230z m41 241l0 90 61-41 0-50c0-3 3-6 7-6 4 0 7 3 7 6l0 54c0 2-1 4-3 6l-75 49-1 1c-1 0-1 0-2 0l-1 0c0 0-1 0-1 0-1 0-1 0-1-1l-71-47-71 47c-2 1-4 1-6 0-2-1-4-3-4-6l0-173c0-2 1-4 3-6l75-49 1-1c1 0 2 0 3 0 0 0 1 0 2 0l64 42c1 1 2 3 3 4 0 2 0 4-1 5-2 4-6 4-10 3l-51-35 0 157 61 41 0-91c0-3 3-6 6-6 4 0 5 3 5 7z m-87 49l0-157-61 41 0 157z m130-88c-12 0-23-10-23-23 0-13 11-23 23-23 13 0 24 10 24 23 0 13-11 23-24 23z m10-23c0-6-4-10-10-10-5 0-9 5-9 10 0 5 4 10 9 10 6 0 10-5 10-10z m-10 47c-26 0-48-21-48-48 0-24 39-73 43-78 1-2 3-3 5-3 2 0 4 1 5 3 5 6 43 54 43 78 0 27-21 48-48 48z m35-47c0-14-21-45-35-64-14 19-34 50-34 64 0 19 15 35 34 35 19 0 35-16 35-35z"/>
<glyph unicode="&#65;" d="M256 499c-134 0-243-109-243-243 0-134 109-243 243-243 134 0 243 109 243 243 0 134-109 243-243 243z m0-473c-127 0-230 103-230 230 0 127 103 230 230 230 127 0 230-103 230-230 0-127-103-230-230-230z m-62 276l0-1c0-3 1-6 1-9l2-8c0-3 1-5 1-8l3-15c1-2 1-3 1-6l1-2c0-1 0-3 1-5 1-5 7-9 13-9l0 0c4 0 8 1 12 1 5 1 11 2 17 3 7 0 15 0 21-1 5-1 11-2 16-3l2-1c1 0 2 0 3 0 5 0 11 3 13 8 1 2 2 4 2 6l0 1c0 3 1 6 2 9l0 3c1 3 1 5 2 8l3 19c1 3 1 5 2 9 0 4 1 9 2 13 0 3 0 6 0 9 0 2 0 3 0 4 0 6 0 12-2 19-4 10-9 18-18 25-7 5-15 8-24 9-1 0-3 1-5 1l-24 0c0 0-1 0-1 0-6 0-12-2-18-4-10-4-17-10-22-18-6-7-9-16-10-26 0-6 0-14 1-21 1-4 2-7 3-10z m98-45c0-1 0-1 0-2 0-1-1-1-1-2 0-2-2-3-4-3-5 1-11 3-17 4-8 1-17 1-26 1-6-1-13-2-19-3-2-1-4-1-6-1-1 0-3 1-3 2-1 2-1 6-2 8l-6 29c0 3-1 6-1 9-2 7-3 14-3 22l0 2c0 3 0 6 0 9 0 16 11 30 26 36 4 1 10 2 14 2l17 0c1 0 2 0 4 0 17 0 30-10 37-25 2-5 3-11 2-17l0-3c0-4 0-9 0-13 0-2-1-5-1-7 0-1-1-2-1-3 0-4-1-8-2-12-1-1-1-3-2-4z m45 40c-4 0-7 0-9-1-5-1-10-7-11-12 0-5 0-10 0-15l0-16c0-4 0-9 0-13 0-3 0-6-2-9-3-6-8-9-15-9-4 0-8 0-12 0-1 0-3 0-5 0l-76 0c-3 0-5 1-7 2-6 2-10 7-11 13 0 3 0 6 0 10l0 2c0 6 0 14 0 20l0 13c0 1 0 2 0 3-2 7-8 12-16 12-1 0-3 0-4-1l-1 0 0-11 3 0c1 0 2 0 4 0 0 0 1 0 1 0 1 0 2-2 2-4l0-17c0-9 0-16 0-24 0-4 1-7 2-10 3-11 15-20 26-20l40 0c19 0 37 0 56 0 2 0 5 1 8 1 12 4 20 15 20 28 0 8 0 18 0 26l0 15c0 3 1 4 5 4 1 0 2 0 3 0l2 0 0 13z m-26-140c-4 0-9-2-11-5-2-4-2-9 1-12 2-2 4-4 8-4l1 0c1 0 1 0 2 0 4 2 7 6 7 11 0 5-3 9-8 10z m-112 0c-4 1-9-2-11-5-2-5-2-10 1-13 2-2 5-3 8-3l1 0c1 0 1 0 2 0 4 2 7 6 7 11 0 5-3 9-8 10z m56 0c-5 1-9-1-11-5-2-4-2-9 1-13 1-2 4-3 7-3l2 0c0 0 1 0 1 0 5 2 8 6 8 11 0 5-3 9-8 10z m48 18c0-3 0-6 0-9l0-4c0-1 0-2 1-2 0-1 1-1 1-1 3 0 5 0 7 0 1 0 1 0 2 1 0 0 0 1 0 1l0 8c0 4 0 8 0 13 0 1 0 2-1 2-4 1-8 2-12 3l-30 8c-4 1-8 2-12 3 0 0 0 0 0 0 0 3 0 5 0 8 0 1 0 2-2 3-2 0-3 0-5 0l-5 0 0-5c0-2 0-4 0-6-3 0-6-1-9-2l-22-6c-8-2-15-4-23-5-2-1-3-1-3-3 0-6 0-13 0-20 0 0 0-1 1-2 0 0 2 0 2 0 2 0 5 0 7 0 1 0 1 0 2 0 1 1 1 2 1 2 0 2 0 4 0 6 0 2 0 5 0 7 0 0 0 0 0 0 0 0 0 0 0 0 4 1 7 2 11 3l1 0c2 0 5 1 8 2l23 6 0-6c0-6 0-12 0-18 0 0 0-1 1-2 0 0 1 0 2 0 2 0 4 0 6 0 1 0 2 0 3 0 0 1 0 2 0 2 0 7 0 13 0 20l0 4 3 0c1-1 3-1 4-1l27-7c4-1 8-2 11-3z"/>
<glyph unicode="&#66;" d="M256 499c-134 0-243-109-243-243 0-134 109-243 243-243 134 0 243 109 243 243 0 134-109 243-243 243z m0-473c-127 0-230 103-230 230 0 127 103 230 230 230 127 0 230-103 230-230 0-127-103-230-230-230z m145 355c-1 2-2 2-4 2l-18 0 0 19c0 1-1 3-2 4-1 1-3 1-5 1-2-1-50-17-57-45-2-9 0-18 8-28l-7-6c-16 15-38 23-61 23-51 0-92-41-92-92 0-22 8-44 23-61l-22-21c-1-1-2-2-2-4 0-1 1-3 2-4 2-2 5-2 7 0l22 22c17-15 39-23 61-23 23 0 45 8 62 23l22-22c1-1 2-1 4-1 1 0 2 0 3 1 1 1 2 3 2 4 0 1-1 3-2 4l-22 22c15 17 24 39 24 61 0 23-9 45-24 62l7 6c7-5 14-9 21-9 31 0 50 56 51 58 0 1 0 3-1 4z m-46-13l0 21c5 2 10 4 13 6l0-14z m-3-16l1-1 22 22 14 0c-8-21-23-44-38-44-4 0-9 2-14 5l16 16z m-7 30l0-25-15-14c-5 6-6 11-5 17 2 8 8 15 20 22z m-90-140c-10 0-18 8-18 18 0 10 8 19 18 19 3 0 6-1 9-3l-7-7c-1 0-2 0-2 0-5 0-9-4-9-9 0-5 4-9 9-9 5 0 9 4 9 9 0 1 0 1 0 2l7 7c2-3 2-6 2-9 0-10-8-18-18-18z m0-32c-28 0-50 22-50 50 0 28 22 50 50 50 11 0 23-4 32-11l-16-15c-5 3-10 5-16 5-16 0-29-13-29-29 0-16 13-30 29-30 16 0 29 13 29 30 0 6-1 11-5 16l15 15c7-9 11-20 11-32 0-27-22-49-50-49z m39 96c-11 9-25 15-39 15-33 0-60-28-60-61 0-33 27-60 60-60 33 0 60 27 60 60 0 14-5 28-14 39l15 15c13-15 20-34 20-54 0-45-36-82-82-82-45 0-81 37-81 82 0 45 36 82 81 82 20 0 39-7 54-20z"/>
<glyph unicode="&#67;" d="M372 283l-29 0c-1 1-1 3-2 4-1 4-3 8-4 12l20 20c1 1 2 3 2 5 0 1-1 3-2 4l-29 29c-2 2-6 2-9 0l-20-20c-5 2-9 3-13 5-1 1-3 1-4 1l0 29c0 3-3 6-7 6l-39 0c-4 0-7-3-7-6l0-29c-1 0-2-1-4-1-4-2-9-3-13-5l-20 20c-3 2-7 2-9 0l-29-29c-1-1-2-3-2-4 0-2 1-4 2-5l20-20c-2-5-4-9-5-13-1-1-1-3-1-4l-28 0c-4 0-7-3-7-7l0-32c0-3 3-6 7-6l27 0c1-8 4-18 8-26l-20-20c-1-1-2-3-2-4 0-2 0-4 2-5l28-28c3-3 7-3 10 0l19 20c5-2 10-4 14-6l0 0c1 0 2 0 3-1l0-28c0-3 3-6 7-6l39 0c4 0 7 3 7 6l0 28c1 1 2 1 3 1l1 0c4 2 9 4 13 6l20-20c3-3 7-3 9 0l29 28c2 3 2 7 0 9l-20 20c3 6 6 12 8 25l27 0c4 0 7 3 7 7l0 32c0 5-3 8-7 8z m-39-38c-2-18-5-23-9-29l0-1c-2-3-1-6 1-8l18-19-19-19-18 18c-2 2-6 3-9 1-4-2-10-4-15-6-4-2-7-3-9-4-2-1-4-3-4-5l0-27-27 0 0 27c0 2-1 4-3 5-2 1-5 2-9 4-5 2-12 4-15 6-3 2-7 1-9-1l-18-18-19 19 18 18c2 2 3 6 1 9-3 5-6 16-9 30 0 3-3 5-6 5l-27 0 0 19 27 0c2 0 4 2 5 4 1 2 2 5 4 9 2 5 4 11 6 15 2 3 1 6-1 8l-18 19 19 20 19-19c2-2 5-2 8-1 4 3 10 5 16 7 3 1 7 2 9 3 2 1 3 4 3 6l0 26 27 0 0-26c0-3 2-5 4-6 2-1 5-2 9-3 5-2 11-4 15-7 3-1 6-1 8 1l19 19 19-20-18-18c-2-2-3-6-1-9 1-2 3-9 4-13 3-10 4-15 10-15 1 0 3 0 3 0l24 0 0-19-26 0c-4 0-7-2-7-5z m-48-73z m-29 135c-28 0-51-23-51-51 0-28 23-51 51-51 28 0 51 23 51 51 0 28-23 51-51 51z m37-51c0-20-17-37-37-37-20 0-37 17-37 37 0 20 17 37 37 37 20 0 37-17 37-37z m-37 243c-132 0-240-109-240-243 0-134 108-243 240-243 132 0 240 109 240 243 0 134-108 243-240 243z m0-473c-125 0-227 103-227 230 0 127 102 230 227 230 125 0 227-103 227-230 0-127-102-230-227-230z"/>
<glyph unicode="&#68;" d="M390 144l-94 94c14 15 22 36 22 57 0 49-40 89-89 89-48 0-88-40-88-89 0-48 40-88 88-88 21 0 42 8 58 21l93-93c1-1 3-2 5-2 2 0 4 1 5 2 1 1 2 3 2 5 0 1-1 3-2 4z m-85 151c0-41-34-75-76-75-41 0-75 34-75 75 0 42 34 76 75 76 42 0 76-34 76-76z m-49 204c-134 0-243-109-243-243 0-134 109-243 243-243 134 0 243 109 243 243 0 134-109 243-243 243z m0-473c-127 0-230 103-230 230 0 127 103 230 230 230 127 0 230-103 230-230 0-127-103-230-230-230z"/>
<glyph unicode="&#69;" d="M256 499c-134 0-243-109-243-243 0-134 109-243 243-243 134 0 243 109 243 243 0 134-109 243-243 243z m0-473c-127 0-230 103-230 230 0 127 103 230 230 230 127 0 230-103 230-230 0-127-103-230-230-230z m0 225c-6 0-10-4-10-10 0-3 1-6 4-8l0-25c0-4 3-7 7-7 3 0 6 3 6 7l0 25c3 2 4 5 4 8-1 6-5 10-11 10z m61 47l0 29c0 31-25 65-61 65-36 0-61-34-61-65l0-29-23 0 0-145 168 0 0 145z m-109 0l0 29c0 25 19 51 48 51 29 0 48-26 48-51l0-29z m-23-132l0 119 143 0 0-119z"/>
<glyph unicode="&#70;" d="M376 339c-1 3-3 4-5 4-2 1-4 0-5-2l-33-34-12 0 0 22 26 32c2 1 2 4 2 6-1 2-2 3-4 4-10 5-22 8-34 8-20 0-38-7-52-21-21-22-28-54-16-81l-97-98c-5-5-8-12-8-19 0-7 2-15 8-20 5-5 12-8 19-8 8 0 15 3 20 8l97 98c9-4 19-6 29-6 19 0 38 8 51 21 24 23 29 58 14 86z m-120-68c2 2 3 5 1 8-12 23-7 51 11 70 12 11 27 17 43 17 7 0 14-1 20-3l-22-27c-1-2-2-3-2-5l0-30c0-4 3-7 7-7l22 0c2 0 3 1 4 2l28 29c7-22 1-45-15-62-11-11-27-17-43-17-9 0-19 2-27 6-3 1-6 1-8-1l-100-101c-6-5-15-5-20 0-2 3-4 6-4 10 0 3 2 7 4 9z m0 228c-132 0-240-109-240-243 0-134 108-243 240-243 132 0 240 109 240 243 0 134-108 243-240 243z m0-473c-125 0-227 103-227 230 0 127 102 230 227 230 125 0 227-103 227-230 0-127-102-230-227-230z"/>
<glyph unicode="&#71;" d="M256 499c-132 0-240-109-240-243 0-134 108-243 240-243 132 0 240 109 240 243 0 134-108 243-240 243z m0-473c-125 0-227 103-227 230 0 127 102 230 227 230 125 0 227-103 227-230 0-127-102-230-227-230z m-122 284l62 0c29 0 45-37 45-38 1-2 3-4 6-4 1 0 2 0 3 0 3 2 5 6 4 10-1 2-20 46-58 46l-62 0c-4 0-8-3-8-7 0-4 4-7 8-7z m198 0l49 0-14-20c-1-2-2-4-1-5 0-2 1-4 3-5 3-2 7-1 9 2l23 31c0 1 0 1 0 1l1 1c0 1 0 3 0 5 0 1 0 1-1 1l-23 32c-2 3-6 4-9 2-2-1-3-3-3-5-1-2 0-3 1-5l14-20-49 0c-32-2-53-35-73-67-20-31-38-59-63-59l-62 0c-4 0-8-3-8-8 0-4 4-7 8-7l62 0c32 0 54 34 75 66 18 29 37 59 61 60z m67 5z m2-120l-23 32c-2 3-7 4-10 1-1-1-2-2-3-4 0-2 0-4 1-5l14-21-49 0c0 0-1 0-1 0-29 0-49 29-49 30-2 3-7 4-10 2-3-2-4-7-2-10 1-1 24-36 60-36 1 0 2 0 2 0l49 0-14-20c-2-3-2-8 1-10 1-1 3-1 4-1 2 0 5 1 6 3l22 31c0 1 1 1 1 1l0 1c1 1 1 4 0 5 1 0 1 0 1 1z m-2-6z"/>
<glyph unicode="&#72;" d="M354 352l-131-183-49 49c-2 2-6 2-8 0-1-1-2-3-2-4 0-2 1-4 2-5l53-53c1-1 3-1 4-1l1 0c1 0 3 1 4 2l135 189c2 2 1 6-2 8-2 1-6 1-7-2z m-131-195z m33 342c-132 0-240-109-240-243 0-134 108-243 240-243 132 0 240 109 240 243 0 134-108 243-240 243z m0-473c-125 0-227 103-227 230 0 127 102 230 227 230 125 0 227-103 227-230 0-127-102-230-227-230z"/>
</font>
</defs>
</svg>
